<?xml version="1.0" encoding="utf-8"?>
<!-- Generator: Adobe Illustrator 24.0.1, SVG Export Plug-In . SVG Version: 6.00 Build 0)  -->
<svg version="1.1" id="Layer_1" xmlns="http://www.w3.org/2000/svg" xmlns:xlink="http://www.w3.org/1999/xlink" x="0px" y="0px"
	 viewBox="0 0 362 200" style="enable-background:new 0 0 362 200;" xml:space="preserve">
<style type="text/css">
	.st0{fill:#263238;}
	.st1{fill:#2962FF;}
	.st2{fill-rule:evenodd;clip-rule:evenodd;fill:#2962FF;}
</style>
<g>
	<g>
		<path class="st0" d="M141.8,80h19.9c2.8,0,5.3,0.4,7.5,1.2s4,1.9,5.4,3.3c1.2,1.2,2.1,2.7,2.7,4.3c0.6,1.6,1,3.4,1,5.4v0.1
			c0,1.8-0.3,3.5-0.8,4.9c-0.5,1.5-1.3,2.8-2.2,3.9c-0.9,1.1-2.1,2.1-3.3,2.9c-1.3,0.8-2.7,1.4-4.3,1.8l12,16.9h-9.2l-11-15.6h-0.1
			h-9.9v15.6h-7.8V80H141.8z M161.1,102.1c2.8,0,5.1-0.7,6.7-2s2.5-3.2,2.5-5.5v-0.1c0-2.4-0.8-4.3-2.4-5.5
			c-1.6-1.3-3.9-1.9-6.8-1.9h-11.6v15H161.1z"/>
		<path class="st0" d="M200.6,80h33v7.1h-25.2v11.5h22.4v7.1h-22.4v11.9H234v7.1h-33.3V80H200.6z"/>
		<path class="st0" d="M252.3,80h8.7l13.5,34.3L287.9,80h8.5l-18.6,44.9h-6.9L252.3,80z"/>
		<path class="st0" d="M339.8,79.6h-7.2l-11.3,25.8h7.7l7.1-16.5l7.1,16.5h8L339.8,79.6z M316.9,115.2l-4.1,9.4h8l4-9.4H316.9z
			 M355.3,115.2h-8.1l3.9,9.4h8.3L355.3,115.2z"/>
		<path class="st1" d="M315.5,107h41.2l2.6,6.6h-46.3L315.5,107L315.5,107z"/>
	</g>
	<g>
		<path class="st0" d="M145.2,145.3H142v-2.2h8.7v2.2h-3.2v14.2h-2.4L145.2,145.3L145.2,145.3z"/>
		<path class="st0" d="M160.7,143.1h8.8v2.2H163v4.8h6.5v2.2H163v5h6.5v2.2h-8.8V143.1z"/>
		<path class="st0" d="M195.2,155.4c-1.5,2.7-4.3,4.3-7.4,4.3c-4.6,0-8.4-3.9-8.4-8.6s3.7-8.5,8.4-8.5c3.2,0,5.9,1.6,7.5,4.5h-2.8
			c-1.3-1.5-2.8-2.3-4.6-2.3c-3.4,0-6.1,2.8-6.1,6.3c0,3.4,2.8,6.4,6,6.4c1.7,0,3.2-0.7,4.5-2.1H195.2L195.2,155.4z"/>
		<path class="st0" d="M205.8,143.1h2.4v7.1h6.7v-7.1h2.4v16.4h-2.4v-7.1h-6.7v7.1h-2.4V143.1z"/>
		<path class="st0" d="M228.6,143.1h2.6l8,12.5v-12.5h2.4v16.4h-2.5l-8.2-12.7v12.7h-2.4v-16.4H228.6z"/>
		<path class="st0" d="M260.8,142.8c4.8,0,8.5,3.7,8.5,8.6c0,4.6-3.9,8.4-8.5,8.4c-4.7,0-8.5-3.8-8.5-8.5
			C252.3,146.5,256.1,142.8,260.8,142.8z M260.9,157.6c1.7,0,3.2-0.6,4.3-1.8c1.1-1.1,1.8-2.9,1.8-4.5s-0.6-3.1-1.6-4.3
			c-1.2-1.4-2.7-2.1-4.6-2.1s-3.3,0.7-4.5,2.1c-1,1.2-1.6,2.7-1.6,4.2c0,1.6,0.7,3.4,1.8,4.5C257.8,157,259.2,157.6,260.9,157.6z"/>
		<path class="st0" d="M280.1,143.1h2.4v14.2h5.7v2.2h-8.1V143.1z"/>
		<path class="st0" d="M305,142.8c4.8,0,8.5,3.7,8.5,8.6c0,4.6-3.9,8.4-8.5,8.4c-4.7,0-8.5-3.8-8.5-8.5
			C296.5,146.5,300.3,142.8,305,142.8z M305,157.6c1.7,0,3.2-0.6,4.3-1.8c1.1-1.1,1.8-2.9,1.8-4.5s-0.6-3.1-1.6-4.3
			c-1.2-1.4-2.7-2.1-4.6-2.1s-3.3,0.7-4.5,2.1c-1,1.2-1.6,2.7-1.6,4.2c0,1.6,0.7,3.4,1.8,4.5C301.9,157,303.3,157.6,305,157.6z"/>
		<path class="st0" d="M340.1,151.3c0,2-0.5,3.4-1.5,4.9c-1.6,2.2-4.2,3.6-6.9,3.6c-4.7,0-8.4-3.8-8.4-8.5c0-4.8,3.7-8.5,8.4-8.5
			c3.1,0,5.9,1.7,7.3,4.4h-2.8c-1.5-1.6-2.8-2.2-4.5-2.2c-3.3,0-6.1,2.8-6.1,6.3c0,3.4,2.8,6.3,6.1,6.3c1.3,0,2.8-0.5,3.9-1.5
			c0.9-0.7,1.3-1.3,1.8-2.6h-7.6v-2.2H340.1z"/>
		<path class="st0" d="M354.1,153.6l-5.1-10.5h2.7l3.6,7.7l3.6-7.7h2.7l-5.1,10.5v5.9h-2.4L354.1,153.6L354.1,153.6z"/>
	</g>
	<path class="st2" d="M80.6,88.1v74.2h-16V98L80.6,88.1z M80.6,37.6L36.7,64.5v97.9h24.6V96.3l19.3-11.9V37.6z M0.3,111.4v50.9h33.2
		V91.1L0.3,111.4z M83.8,86.1v76.2h28.9V68.2L83.8,86.1z"/>
</g>
</svg>
